<svg width="32" height="32" viewBox="0 0 32 32" fill="none" xmlns="http://www.w3.org/2000/svg">
<path d="M26.667 15.9999C26.667 18.8289 25.5432 21.542 23.5428 23.5424C21.5424 25.5428 18.8293 26.6666 16.0003 26.6666C13.1713 26.6666 10.4582 25.5428 8.45785 23.5424C6.45747 21.542 5.33366 18.8289 5.33366 15.9999C5.33366 13.1709 6.45747 10.4578 8.45785 8.45744C10.4582 6.45706 13.1713 5.33325 16.0003 5.33325C17.0137 5.33325 18.0003 5.47992 18.9337 5.74658L21.027 3.65325C19.4329 2.99593 17.7246 2.6606 16.0003 2.66658C14.2494 2.66658 12.5156 3.01146 10.8979 3.68152C9.2802 4.35159 7.81035 5.33371 6.57224 6.57183C4.07175 9.07231 2.66699 12.4637 2.66699 15.9999C2.66699 19.5361 4.07175 22.9275 6.57224 25.428C7.81035 26.6661 9.2802 27.6482 10.8979 28.3183C12.5156 28.9884 14.2494 29.3333 16.0003 29.3333C19.5365 29.3333 22.9279 27.9285 25.4284 25.428C27.9289 22.9275 29.3337 19.5361 29.3337 15.9999M10.547 13.4399L8.66699 15.3332L14.667 21.3332L28.0003 7.99992L26.1203 6.10658L14.667 17.5599L10.547 13.4399Z" fill="#4AB705"/>
</svg>
