<svg width="23" height="19" viewBox="0 0 23 19" fill="none" xmlns="http://www.w3.org/2000/svg">
<path d="M2.0534 7.78876C7.88465 5.24876 11.7721 3.57418 13.7159 2.76501C19.2721 0.454696 20.4253 0.0534461 21.1784 0.0398523C21.344 0.0371961 21.7128 0.0781332 21.9534 0.272664C22.1534 0.436727 22.2096 0.658602 22.2378 0.814384C22.2628 0.970009 22.2971 1.3247 22.269 1.60157C21.969 4.76407 20.6659 12.4384 20.0034 15.9806C19.7253 17.4794 19.1721 17.9819 18.6378 18.0309C17.4753 18.1378 16.594 17.2634 15.469 16.5263C13.7096 15.3722 12.7159 14.6541 11.0065 13.5281C9.03152 12.2269 10.3128 11.5116 11.4378 10.3428C11.7315 10.0369 16.8503 5.3822 16.9471 4.96001C16.9596 4.9072 16.9721 4.71032 16.8534 4.60657C16.7378 4.50251 16.5659 4.53813 16.4409 4.56626C16.2628 4.60626 13.4534 6.46501 8.0034 10.1422C7.20652 10.6903 6.48465 10.9575 5.83465 10.9434C5.12215 10.9281 3.74715 10.5397 2.72527 10.2078C1.47527 9.80063 0.478398 9.58532 0.565898 8.89376C0.609648 8.53376 1.10652 8.16532 2.0534 7.78876Z" fill="white"/>
</svg>
